<?xml version="1.0" encoding="UTF-8" standalone="no"?>
<svg
   width="33.000mm"
   height="71.991mm"
   viewBox="12.258474 -179.991409 33.000000 71.991409"
   version="1.1"
   id="svg73"
   sodipodi:docname="key labels.svg"
   inkscape:version="1.4 (86a8ad7, 2024-10-11)"
   xmlns:inkscape="http://www.inkscape.org/namespaces/inkscape"
   xmlns:sodipodi="http://sodipodi.sourceforge.net/DTD/sodipodi-0.dtd"
   xmlns="http://www.w3.org/2000/svg"
   xmlns:svg="http://www.w3.org/2000/svg">
  <defs
     id="defs73" />
  <sodipodi:namedview
     id="namedview73"
     pagecolor="#ffffff"
     bordercolor="#000000"
     borderopacity="0.25"
     inkscape:showpageshadow="2"
     inkscape:pageopacity="0.0"
     inkscape:pagecheckerboard="0"
     inkscape:deskcolor="#d1d1d1"
     inkscape:document-units="mm"
     inkscape:zoom="2.4532147"
     inkscape:cx="-215.2278"
     inkscape:cy="114.33977"
     inkscape:window-width="3840"
     inkscape:window-height="1537"
     inkscape:window-x="1432"
     inkscape:window-y="-8"
     inkscape:window-maximized="1"
     inkscape:current-layer="svg73" />
  <circle
     transform="matrix(1,0,0,-1,17.637154,-176.824753)"
     style="stroke:#000000;stroke-width:0.05mm;fill:#000000;fill-opacity:1"
     r="0.75"
     cx="0"
     cy="0"
     id="circle1" />
  <circle
     transform="matrix(1,0,0,-1,35.637154,-176.824753)"
     style="stroke:#000000;stroke-width:0.05mm;fill:#000000;fill-opacity:1"
     r="0.75"
     cx="0"
     cy="0"
     id="circle2" />
  <circle
     transform="scale(1,-1)"
     style="fill:#000000;fill-opacity:1;stroke:#000000;stroke-width:0.05mm"
     r="0.75"
     cx="33.015987"
     cy="156.13272"
     id="circle2-0" />
  <circle
     transform="scale(1,-1)"
     style="fill:#000000;fill-opacity:1;stroke:#000000;stroke-width:0.05mm"
     r="0.75"
     cx="14.793091"
     cy="156.1257"
     id="circle2-0-9" />
  <circle
     transform="scale(1,-1)"
     style="fill:#000000;fill-opacity:1;stroke:#000000;stroke-width:0.05mm"
     r="0.75"
     cx="32.834671"
     cy="133.97684"
     id="circle2-0-4" />
  <circle
     transform="scale(1,-1)"
     style="fill:#000000;fill-opacity:1;stroke:#000000;stroke-width:0.05mm"
     r="0.75"
     cx="15.598525"
     cy="135.78613"
     id="circle2-0-8" />
  <path
     style="stroke:#000000;stroke-width:0.050000mm;fill:none"
     d="M-21.685129,-11.029358L-21.685129,2.720642C-18.978203,3.638927,-16.126064,4.054207,-13.269671,3.945961C-11.032423,3.812815,-8.820499,3.401197,-6.685129,2.720642L-6.685129,-11.029358L-21.685129,-11.029358z"
     id="path2"
     transform="matrix(1,0,0,-1,33.943604,-176.029358)" />
  <path
     style="stroke:#000000;stroke-width:0.05mm;fill:#000000;fill-opacity:1"
     d="M-13.770915,-3.154358L-17.013556,0.088282C-17.404079,0.478807,-18.037245,0.478806,-18.427769,0.088282C-18.818293,-0.302242,-18.818293,-0.935406,-18.427769,-1.325931L-14.892236,-4.861465C-14.7047,-5.049002,-14.450345,-5.154359,-14.185128,-5.154358L-9.185128,-5.154358C-8.632843,-5.154358,-8.185128,-4.706643,-8.185128,-4.154358C-8.185128,-3.602074,-8.632843,-3.154358,-9.185128,-3.154358L-13.770915,-3.154358z"
     id="path3"
     transform="matrix(1,0,0,-1,33.943604,-176.029358)" />
  <path
     style="stroke:#000000;stroke-width:0.05mm;fill:#000000;fill-opacity:1"
     d="M-18.720663,-5.154358L-16.720663,-5.154358L-17.720663,-3.154358L-18.720663,-5.154358z"
     id="path4"
     transform="matrix(1,0,0,-1,33.943604,-176.029358)" />
  <path
     style="stroke:#000000;stroke-width:0.050000mm;fill:none"
     d="M-3.685129,-11.029358L-3.685129,2.720642C-0.978198,3.638924,1.873937,4.054203,4.730329,3.945961C6.967582,3.812815,9.179491,3.401201,11.314872,2.720642L11.314872,-11.029358L-3.685129,-11.029358z"
     id="path7"
     transform="matrix(1,0,0,-1,33.943604,-176.029358)" />
  <path
     style="stroke:#000000;stroke-width:0.05mm;fill:#000000;fill-opacity:1"
     d="M3.814871,-5.154358L8.814872,-5.154358C9.367157,-5.154358,9.814872,-4.706643,9.814872,-4.154358C9.814872,-3.602074,9.367157,-3.154358,8.814872,-3.154358L4.229085,-3.154358L0.986444,0.088282C0.59592,0.478807,-0.037245,0.478807,-0.427769,0.088282C-0.818294,-0.302242,-0.818294,-0.935407,-0.427769,-1.325931L3.107765,-4.861465C3.295301,-5.049001,3.549655,-5.154358,3.814871,-5.154358z"
     id="path8"
     transform="matrix(1,0,0,-1,33.943604,-176.029358)" />
  <path
     style="stroke:#000000;stroke-width:0.050000mm;fill:none"
     d="M3.107764,-4.861465C3.295301,-5.049002,3.549654,-5.154358,3.814871,-5.154358"
     id="path9"
     transform="matrix(1,0,0,-1,33.943604,-176.029358)" />
  <path
     style="stroke:#000000;stroke-width:0.05mm;fill:#000000;fill-opacity:1"
     d="M-0.720662,-3.154358L0.279338,-5.154358L1.279338,-3.154358L-0.720662,-3.154358z"
     id="path10"
     transform="matrix(1,0,0,-1,33.943604,-176.029358)" />
  <path
     style="stroke:#000000;stroke-width:0.050000mm;fill:none"
     d="M11.314872,-29.029358L11.314872,-15.279358C9.33889,-14.653074,7.298455,-14.252172,5.232416,-14.084289C2.296672,-13.899128,-0.647501,-14.278309,-3.440516,-15.201281L-3.685129,-15.279358L-3.685129,-29.029358L11.314872,-29.029358z"
     id="path11"
     transform="matrix(1,0,0,-1,33.943604,-176.029358)" />
  <path
     style="stroke:#000000;stroke-width:0.050000mm;fill:none"
     d="M-21.685129,-29.029358L-21.685129,-15.279358L-21.440516,-15.201281C-18.647482,-14.278313,-15.703326,-13.899136,-12.767585,-14.084289C-10.701542,-14.252174,-8.661108,-14.653076,-6.685129,-15.279358L-6.685129,-29.029358L-21.685129,-29.029358z"
     id="path14"
     transform="matrix(1,0,0,-1,33.943604,-176.029358)" />
  <path
     style="stroke:#000000;stroke-width:0.05mm;fill:#000000;fill-opacity:1"
     d="M-8.185128,-24.447359L-10.185128,-24.447359L-9.185128,-22.447359L-8.185128,-24.447359z"
     id="path15"
     transform="matrix(1,0,0,-1,33.943604,-176.029358)" />
  <path
     style="stroke:#000000;stroke-width:0.050000mm;fill:none"
     d="M-14.892235,-4.861465C-14.704699,-5.049002,-14.450345,-5.154358,-14.185128,-5.154358"
     id="path16"
     transform="matrix(1,0,0,-1,33.943604,-176.029358)" />
  <path
     style="stroke:#000000;stroke-width:0.05mm;fill:#000000;fill-opacity:1"
     d="M-9.185128,-21.740145C-8.632843,-21.740145,-8.185128,-21.292429,-8.185128,-20.740145C-8.185128,-20.18786,-8.632843,-19.740145,-9.185128,-19.740145L-11.770915,-19.740145C-12.036132,-19.740145,-12.290485,-19.845501,-12.478022,-20.033037L-13.599342,-21.154358L-14.185128,-21.154358L-19.185129,-21.154358C-19.737413,-21.154358,-20.185129,-21.602074,-20.185129,-22.154358C-20.185129,-22.706642,-19.737413,-23.154358,-19.185129,-23.154358L-14.185128,-23.154358L-13.185128,-23.154358C-12.919911,-23.154358,-12.665558,-23.049002,-12.478022,-22.861465L-11.356702,-21.740145L-9.185128,-21.740145z"
     id="path17"
     transform="matrix(1,0,0,-1,33.943604,-176.029358)" />
  <path
     style="stroke:#000000;stroke-width:0.050000mm;fill:none"
     d="M-13.185128,-23.154358C-12.919912,-23.154358,-12.665559,-23.049002,-12.478022,-22.861465C-12.665558,-23.049002,-12.919912,-23.154358,-13.185128,-23.154358z"
     id="path18"
     transform="matrix(1,0,0,-1,33.943604,-176.029358)" />
  <path
     style="stroke:#000000;stroke-width:0.05mm;fill:#000000;fill-opacity:1"
     d="M3.964871,-21.154358L-1.035129,-21.154358C-1.587413,-21.154358,-2.035129,-21.602074,-2.035129,-22.154358C-2.035129,-22.706642,-1.587413,-23.154358,-1.035129,-23.154358L3.964871,-23.154358L4.964871,-23.154358C5.230088,-23.154358,5.484442,-23.049002,5.671978,-22.861465L6.793299,-21.740145L8.964871,-21.740145C9.517157,-21.740145,9.964871,-21.292429,9.964871,-20.740145C9.964871,-20.18786,9.517157,-19.740145,8.964871,-19.740145L6.379085,-19.740145C6.113869,-19.740145,5.859514,-19.845501,5.671978,-20.033037L4.550658,-21.154358L3.964871,-21.154358z"
     id="path19"
     transform="matrix(1,0,0,-1,33.943604,-176.029358)" />
  <path
     style="stroke:#000000;stroke-width:0.05mm;fill:#000000;fill-opacity:1"
     d="M9.964871,-22.447359L8.964871,-24.447359L7.964871,-22.447359L9.964871,-22.447359z"
     id="path20"
     transform="matrix(1,0,0,-1,33.943604,-176.029358)" />
  <path
     style="stroke:#000000;stroke-width:0.050000mm;fill:none"
     d="M4.964871,-23.154358C5.230087,-23.154358,5.484441,-23.049002,5.671978,-22.861465C5.484441,-23.049002,5.230087,-23.154358,4.964871,-23.154358z"
     id="path21"
     transform="matrix(1,0,0,-1,33.943604,-176.029358)" />
  <path
     style="stroke:#000000;stroke-width:0.050000mm;fill:none"
     d="M-3.685129,-37.279358L-3.440516,-37.201279C-0.647482,-36.278313,2.296684,-35.899136,5.232416,-36.08429C7.298458,-36.252174,9.338902,-36.653076,11.314872,-37.279358L11.314872,-51.029358L-3.685129,-51.029358L-3.685129,-37.279358z"
     id="path22"
     transform="matrix(1,0,0,-1,33.943604,-176.029358)" />
  <path
     style="stroke:#000000;stroke-width:0.05mm;fill:#000000;fill-opacity:1"
     d="M-1.185129,-45.154358L3.814871,-45.154358L8.814872,-45.154358C9.367157,-45.154358,9.814872,-44.706642,9.814872,-44.154358C9.814872,-43.602074,9.367157,-43.154358,8.814872,-43.154358L3.814871,-43.154358L-1.185129,-43.154358C-1.737413,-43.154358,-2.185128,-43.602074,-2.185129,-44.154358C-2.185129,-44.706642,-1.737413,-45.154358,-1.185129,-45.154358z"
     id="path24"
     transform="matrix(1,0,0,-1,33.943604,-176.029358)" />
  <path
     style="stroke:#000000;stroke-width:0.050000mm;fill:none"
     d="M-21.685129,-37.279358L-21.440516,-37.201279C-18.647484,-36.278313,-15.703323,-35.899132,-12.767585,-36.08429C-10.701543,-36.252178,-8.661099,-36.65308,-6.685129,-37.279358L-6.685129,-51.029358L-21.685129,-51.029358L-21.685129,-37.279358z"
     id="path25"
     transform="matrix(1,0,0,-1,33.943604,-176.029358)" />
  <path
     style="stroke:#000000;stroke-width:0.05mm;fill:#000000;fill-opacity:1"
     d="M-14.335129,-45.154358L-13.335129,-45.154358C-13.069913,-45.154358,-12.815558,-45.049004,-12.628022,-44.861465L-11.506701,-43.740143L-9.185128,-43.740143C-8.632843,-43.740143,-8.185128,-43.292427,-8.185128,-42.740143C-8.185128,-42.187859,-8.632843,-41.740143,-9.185128,-41.740143L-11.920915,-41.740143C-12.186131,-41.740143,-12.440487,-41.845501,-12.628022,-42.033039L-13.749342,-43.154358L-14.136216,-43.154358L-18.802444,-41.221542C-19.312689,-41.010193,-19.897657,-41.252495,-20.109007,-41.762741C-20.320356,-42.272984,-20.078056,-42.857952,-19.567812,-43.069302L-14.717812,-45.078239C-14.596486,-45.128494,-14.466451,-45.154358,-14.335129,-45.154358z"
     id="path27"
     transform="matrix(1,0,0,-1,33.943604,-176.029358)" />
  <path
     style="stroke:#000000;stroke-width:0.050000mm;fill:none"
     d="M-14.717813,-45.078236C-14.596487,-45.12849,-14.466451,-45.154358,-14.335129,-45.154358"
     id="path28"
     transform="matrix(1,0,0,-1,33.943604,-176.029358)" />
  <path
     style="stroke:#000000;stroke-width:0.050000mm;fill:none"
     d="M-6.685129,-68.029358L-6.685129,-54.279358C-8.661108,-53.653076,-10.70153,-53.252178,-12.767585,-53.08429C-15.703324,-52.899132,-18.647484,-53.278313,-21.440516,-54.201279L-21.685129,-54.279358L-21.685129,-68.029358L-6.685129,-68.029358z"
     id="path30"
     transform="matrix(1,0,0,-1,33.943604,-176.029358)" />
  <path
     style="stroke:#000000;stroke-width:0.05mm;fill:#000000;fill-opacity:1"
     d="M-15.042235,-61.861465C-14.854699,-62.049,-14.600346,-62.154358,-14.335129,-62.154358L-13.335129,-62.154358C-13.069913,-62.154358,-12.815558,-62.049004,-12.628022,-61.861465L-11.506701,-60.740143L-9.185128,-60.740143C-8.632843,-60.740143,-8.185128,-60.292427,-8.185128,-59.740143C-8.185128,-59.187859,-8.632843,-58.740143,-9.185128,-58.740143L-11.920915,-58.740143C-12.186131,-58.740143,-12.440487,-58.845501,-12.628022,-59.033039L-13.749342,-60.154358L-13.920915,-60.154358L-17.163555,-56.911716C-17.554081,-56.521191,-18.187246,-56.521194,-18.57777,-56.911716C-18.968294,-57.302242,-18.968294,-57.93541,-18.577768,-58.325932L-15.042235,-61.861465z"
     id="path31"
     transform="matrix(1,0,0,-1,33.943604,-176.029358)" />
  <path
     style="stroke:#000000;stroke-width:0.050000mm;fill:none"
     d="M-14.717813,-62.078236C-14.596487,-62.12849,-14.466451,-62.154358,-14.335129,-62.154358C-14.600346,-62.154358,-14.854699,-62.049,-15.042235,-61.861465"
     id="path32"
     transform="matrix(1,0,0,-1,33.943604,-176.029358)" />
  <path
     style="stroke:#000000;stroke-width:0.05mm;fill:#000000;fill-opacity:1"
     d="M-17.118208,-7.915294L-17.118208,-6.972593L-16.078644,-6.972593L-16.078644,-7.915294L-15.813978,-7.915294L-15.813978,-5.915294L-16.078644,-5.915294L-16.078644,-6.736576L-17.118208,-6.736576L-17.118208,-5.915294L-17.382874,-5.915294L-17.382874,-7.915294L-17.118208,-7.915294z"
     id="path33"
     transform="matrix(1,0,0,-1,33.943604,-176.029358)" />
  <path
     style="stroke:#000000;stroke-width:0.05mm;fill:#000000;fill-opacity:1"
     d="M-14.381509,-7.825253C-14.489739,-7.907108,-14.627984,-7.948036,-14.796243,-7.948036C-15.008157,-7.948036,-15.176188,-7.882779,-15.300335,-7.752265C-15.424482,-7.621751,-15.486556,-7.438714,-15.486556,-7.203152C-15.486556,-6.959405,-15.4238,-6.770228,-15.298289,-6.635622C-15.172777,-6.501015,-15.009976,-6.433712,-14.809885,-6.433712C-14.61616,-6.433712,-14.457907,-6.49965,-14.335124,-6.631529C-14.212341,-6.763407,-14.150949,-6.948946,-14.150949,-7.188145C-14.150949,-7.202697,-14.151404,-7.224525,-14.152313,-7.25363L-15.232804,-7.25363C-15.22371,-7.412793,-15.178689,-7.534667,-15.097743,-7.61925C-15.016797,-7.703834,-14.915842,-7.746126,-14.794878,-7.746126C-14.704838,-7.746126,-14.627984,-7.722479,-14.564319,-7.675185C-14.500653,-7.627891,-14.450176,-7.552402,-14.412887,-7.448718L-14.159135,-7.480096C-14.199153,-7.628345,-14.273277,-7.743398,-14.381509,-7.825253z"
     id="path34"
     transform="matrix(1,0,0,-1,33.943604,-176.029358)" />
  <path
     style="stroke:#000000;stroke-width:0.05mm;fill:#ffffff"
     d="M-14.502928,-6.777504C-14.581144,-6.682916,-14.682554,-6.635622,-14.807157,-6.635622C-14.919935,-6.635622,-15.014751,-6.673366,-15.091604,-6.748855C-15.168457,-6.824344,-15.210977,-6.925299,-15.219162,-7.05172L-14.410158,-7.05172C-14.421072,-6.929846,-14.451995,-6.838441,-14.502928,-6.777504z"
     id="path35"
     transform="matrix(1,0,0,-1,33.943604,-176.029358)" />
  <path
     style="stroke:#000000;stroke-width:0.05mm;fill:#000000;fill-opacity:1"
     d="M-12.85627,-7.915294L-12.59979,-7.915294C-12.630713,-7.859814,-12.651404,-7.801833,-12.661863,-7.741351C-12.672322,-7.680869,-12.677552,-7.536485,-12.677552,-7.3082L-12.677552,-6.980778C-12.677552,-6.871638,-12.681645,-6.796149,-12.689831,-6.754312C-12.704383,-6.687008,-12.729849,-6.631301,-12.766229,-6.58719C-12.802609,-6.543079,-12.859453,-6.506472,-12.936761,-6.477367C-13.014069,-6.448264,-13.114569,-6.433712,-13.238261,-6.433712C-13.362864,-6.433712,-13.472459,-6.450765,-13.567047,-6.484871C-13.661636,-6.518978,-13.733941,-6.567636,-13.783964,-6.630847C-13.833987,-6.694057,-13.869912,-6.77705,-13.891741,-6.879823L-13.651631,-6.912565C-13.625256,-6.809792,-13.584556,-6.738168,-13.529531,-6.697695C-13.474505,-6.657222,-13.389239,-6.636986,-13.273732,-6.636986C-13.15004,-6.636986,-13.056815,-6.664725,-12.99406,-6.720205C-12.947675,-6.761133,-12.924482,-6.83162,-12.924482,-6.931665C-12.924482,-6.94076,-12.924937,-6.962133,-12.925847,-6.995785C-13.019526,-7.028527,-13.165502,-7.056722,-13.363773,-7.080369C-13.46109,-7.092193,-13.533851,-7.104471,-13.582054,-7.117204C-13.647538,-7.135394,-13.706429,-7.162224,-13.758725,-7.197695C-13.811022,-7.233166,-13.853314,-7.280232,-13.885601,-7.338895C-13.917889,-7.397559,-13.934032,-7.462361,-13.934032,-7.533302C-13.934032,-7.654266,-13.891286,-7.75363,-13.805792,-7.831392C-13.720299,-7.909155,-13.597971,-7.948036,-13.438807,-7.948036C-13.3424,-7.948036,-13.252131,-7.93212,-13.168002,-7.900287C-13.083874,-7.868454,-12.996333,-7.813884,-12.905383,-7.736576C-12.898107,-7.804789,-12.881736,-7.864362,-12.85627,-7.915294z"
     id="path36"
     transform="matrix(1,0,0,-1,33.943604,-176.029358)" />
  <path
     style="stroke:#000000;stroke-width:0.05mm;fill:#ffffff;fill-opacity:1"
     d="M-12.925847,-7.278186C-12.925847,-7.386417,-12.939034,-7.468273,-12.96541,-7.523752C-12.999971,-7.595603,-13.054087,-7.65222,-13.127757,-7.693602C-13.201427,-7.734985,-13.285556,-7.755676,-13.380144,-7.755676C-13.475642,-7.755676,-13.548175,-7.733848,-13.597743,-7.690192C-13.647311,-7.646535,-13.672095,-7.591965,-13.672095,-7.526481C-13.672095,-7.483734,-13.660727,-7.444853,-13.637989,-7.409837C-13.615252,-7.374821,-13.582964,-7.348218,-13.541126,-7.330028C-13.49929,-7.311838,-13.427894,-7.295467,-13.326939,-7.280915C-13.148676,-7.255448,-13.014978,-7.224525,-12.925847,-7.188145L-12.925847,-7.278186z"
     id="path37"
     transform="matrix(1,0,0,-1,33.943604,-176.029358)" />
  <path
     style="stroke:#000000;stroke-width:0.05mm;fill:#000000;fill-opacity:1"
     d="M-11.539762,-6.488964C-11.607975,-6.452129,-11.685738,-6.433712,-11.77305,-6.433712C-11.892195,-6.433712,-11.999971,-6.465089,-12.096379,-6.527845C-12.192786,-6.590601,-12.265092,-6.680869,-12.313295,-6.79865C-12.3615,-6.916431,-12.385601,-7.047627,-12.385601,-7.192238C-12.385601,-7.340487,-12.358998,-7.471683,-12.305792,-7.585826C-12.252586,-7.699969,-12.177552,-7.788873,-12.08069,-7.852538C-11.983828,-7.916203,-11.877644,-7.948036,-11.762136,-7.948036C-11.583873,-7.948036,-11.448812,-7.876185,-11.356952,-7.732483L-11.356952,-7.915294L-11.129121,-7.915294L-11.129121,-5.915294L-11.373323,-5.915294L-11.373323,-6.632893C-11.41607,-6.573775,-11.471549,-6.525799,-11.539762,-6.488964z"
     id="path38"
     transform="matrix(1,0,0,-1,33.943604,-176.029358)" />
  <path
     style="stroke:#000000;stroke-width:0.05mm;fill:#ffffff;fill-opacity:1"
     d="M-11.738944,-7.746126C-11.631622,-7.746126,-11.540444,-7.702242,-11.46541,-7.614475C-11.390376,-7.526708,-11.352859,-7.392784,-11.352859,-7.212702C-11.352859,-7.01443,-11.391058,-6.868909,-11.467457,-6.77614C-11.543855,-6.68337,-11.637989,-6.636986,-11.749858,-6.636986C-11.858998,-6.636986,-11.950176,-6.681551,-12.023391,-6.770683C-12.096606,-6.859814,-12.133214,-7.000333,-12.133214,-7.192238C-12.133214,-7.377777,-12.094105,-7.516476,-12.015888,-7.608336C-11.937671,-7.700196,-11.845356,-7.746126,-11.738944,-7.746126z"
     id="path39"
     transform="matrix(1,0,0,-1,33.943604,-176.029358)" />
  <path
     style="stroke:#000000;stroke-width:0.05mm;fill:#000000;fill-opacity:1"
     d="M0.881793,-7.915294L0.881793,-6.972593L1.921356,-6.972593L1.921356,-7.915294L2.186022,-7.915294L2.186022,-5.915294L1.921356,-5.915294L1.921356,-6.736576L0.881793,-6.736576L0.881793,-5.915294L0.617127,-5.915294L0.617127,-7.915294L0.881793,-7.915294z"
     id="path40"
     transform="matrix(1,0,0,-1,33.943604,-176.029358)" />
  <path
     style="fill:#000000;stroke:#000000;stroke-width:0.05mm;fill-opacity:1"
     d="M 3.618491,-7.825253 C 3.51026,-7.907108 3.372016,-7.948036 3.203757,-7.948036 c -0.211914,0 -0.379945,0.065257 -0.504092,0.195771 -0.124148,0.130514 -0.186221,0.313551 -0.186221,0.549113 0,0.243747 0.062756,0.432924 0.188267,0.56753 0.125512,0.134607 0.288313,0.20191 0.488404,0.20191 0.193724,0 0.351978,-0.065938 0.474761,-0.197817 0.122783,-0.131878 0.184175,-0.317417 0.184175,-0.556616 0,-0.014552 -4.55e-4,-0.03638 -0.00136,-0.065485 H 2.767195 c 0.00909,-0.159163 0.054116,-0.281037 0.135062,-0.36562 0.080946,-0.084584 0.1819,-0.126876 0.302865,-0.126876 0.090041,0 0.166894,0.023647 0.230559,0.070941 0.063665,0.047294 0.114143,0.122783 0.151432,0.226467 L 3.840865,-7.480096 C 3.800847,-7.628345 3.726722,-7.743398 3.618491,-7.825253 Z"
     id="path41"
     sodipodi:nodetypes="ssssssssccsssccs"
     transform="matrix(1,0,0,-1,33.943604,-176.02936)" />
  <path
     style="stroke:#000000;stroke-width:0.05mm;fill:#ffffff;fill-opacity:1"
     d="M3.497073,-6.777504C3.418855,-6.682916,3.317446,-6.635622,3.192843,-6.635622C3.080065,-6.635622,2.985249,-6.673366,2.908396,-6.748855C2.831543,-6.824344,2.789023,-6.925299,2.780838,-7.05172L3.589842,-7.05172C3.578928,-6.929846,3.548005,-6.838441,3.497073,-6.777504z"
     id="path42"
     transform="matrix(1,0,0,-1,33.943604,-176.029358)" />
  <path
     style="stroke:#000000;stroke-width:0.05mm;fill:#000000;fill-opacity:1"
     d="M5.14373,-7.915294L5.40021,-7.915294C5.369287,-7.859814,5.348596,-7.801833,5.338137,-7.741351C5.327677,-7.680869,5.322448,-7.536485,5.322448,-7.3082L5.322448,-6.980778C5.322448,-6.871638,5.318355,-6.796149,5.310169,-6.754312C5.295618,-6.687008,5.270151,-6.631301,5.233771,-6.58719C5.197391,-6.543079,5.140547,-6.506472,5.063239,-6.477367C4.985931,-6.448264,4.885431,-6.433712,4.761738,-6.433712C4.637136,-6.433712,4.527541,-6.450765,4.432952,-6.484871C4.338364,-6.518978,4.266058,-6.567636,4.216036,-6.630847C4.166013,-6.694057,4.130087,-6.77705,4.10826,-6.879823L4.348369,-6.912565C4.374744,-6.809792,4.415444,-6.738168,4.470469,-6.697695C4.525495,-6.657222,4.610761,-6.636986,4.726268,-6.636986C4.84996,-6.636986,4.943184,-6.664725,5.00594,-6.720205C5.052325,-6.761133,5.075517,-6.83162,5.075517,-6.931665C5.075517,-6.94076,5.075063,-6.962133,5.074153,-6.995785C4.980474,-7.028527,4.834499,-7.056722,4.636227,-7.080369C4.53891,-7.092193,4.466149,-7.104471,4.417946,-7.117204C4.352461,-7.135394,4.293571,-7.162224,4.241274,-7.197695C4.188978,-7.233166,4.146686,-7.280232,4.114398,-7.338895C4.082111,-7.397559,4.065968,-7.462361,4.065968,-7.533302C4.065968,-7.654266,4.108714,-7.75363,4.194208,-7.831392C4.279701,-7.909155,4.40203,-7.948036,4.561193,-7.948036C4.6576,-7.948036,4.747869,-7.93212,4.831997,-7.900287C4.916127,-7.868454,5.003666,-7.813884,5.094617,-7.736576C5.101893,-7.804789,5.118264,-7.864362,5.14373,-7.915294z"
     id="path43"
     transform="matrix(1,0,0,-1,33.943604,-176.029358)" />
  <path
     style="fill:#ffffff;fill-opacity:1;stroke:#000000;stroke-width:0.05mm"
     d="m 5.074153,-7.278186 c 0,-0.108231 -0.013188,-0.190087 -0.039563,-0.245566 C 5.000029,-7.595603 4.945913,-7.65222 4.872243,-7.693602 4.798573,-7.734985 4.714444,-7.755676 4.619856,-7.755676 c -0.095498,0 -0.168031,0.021828 -0.217599,0.065484 -0.049568,0.043657 -0.074352,0.098227 -0.074352,0.163711 0,0.042747 0.011368,0.081628 0.034106,0.116644 0.022738,0.035016 0.055025,0.061619 0.096862,0.079809 0.041837,0.01819 0.113234,0.034561 0.214189,0.049113 0.178263,0.025467 0.31196,0.05639 0.401091,0.09277 z"
     id="path44"
     sodipodi:nodetypes="scssssssccs"
     transform="matrix(1,0,0,-1,33.943604,-176.02936)" />
  <path
     style="stroke:#000000;stroke-width:0.05mm;fill:#000000;fill-opacity:1"
     d="M6.460238,-6.488964C6.392025,-6.452129,6.314262,-6.433712,6.22695,-6.433712C6.107805,-6.433712,6.000029,-6.465089,5.903621,-6.527845C5.807214,-6.590601,5.734908,-6.680869,5.686704,-6.79865C5.638501,-6.916431,5.614398,-7.047627,5.614398,-7.192238C5.614398,-7.340487,5.641002,-7.471683,5.694208,-7.585826C5.747414,-7.699969,5.822448,-7.788873,5.91931,-7.852538C6.016172,-7.916203,6.122357,-7.948036,6.237864,-7.948036C6.416127,-7.948036,6.551188,-7.876185,6.643048,-7.732483L6.643048,-7.915294L6.870879,-7.915294L6.870879,-5.915294L6.626677,-5.915294L6.626677,-6.632893C6.58393,-6.573775,6.52845,-6.525799,6.460238,-6.488964z"
     id="path45"
     transform="matrix(1,0,0,-1,33.943604,-176.029358)" />
  <path
     style="stroke:#000000;stroke-width:0.05mm;fill:#ffffff"
     d="M6.261056,-7.746126C6.368378,-7.746126,6.459556,-7.702242,6.53459,-7.614475C6.609624,-7.526708,6.647141,-7.392784,6.647141,-7.212702C6.647141,-7.01443,6.608942,-6.868909,6.532543,-6.77614C6.456145,-6.68337,6.362011,-6.636986,6.250142,-6.636986C6.141002,-6.636986,6.049824,-6.681551,5.976609,-6.770683C5.903394,-6.859814,5.866786,-7.000333,5.866786,-7.192238C5.866786,-7.377777,5.905895,-7.516476,5.984112,-7.608336C6.06233,-7.700196,6.154644,-7.746126,6.261056,-7.746126z"
     id="path46"
     transform="matrix(1,0,0,-1,33.943604,-176.029358)" />
  <path
     style="stroke:#000000;stroke-width:0.05mm;fill:#000000;fill-opacity:1"
     d="M-16.568411,-25.915295L-16.568411,-25.006699L-15.629803,-25.006699L-15.629803,-24.770683L-16.568411,-24.770683L-16.568411,-24.15131L-15.483828,-24.15131L-15.483828,-23.915295L-16.833076,-23.915295L-16.833076,-25.915295L-16.568411,-25.915295z"
     id="path47"
     transform="matrix(1,0,0,-1,33.943604,-176.029358)" />
  <path
     style="stroke:#000000;stroke-width:0.05mm;fill:#000000;fill-opacity:1"
     d="M-14.583419,-24.433712C-14.384237,-24.433712,-14.221436,-24.498968,-14.095015,-24.629482C-13.968594,-24.759996,-13.905383,-24.940306,-13.905383,-25.17041C-13.905383,-25.356859,-13.933351,-25.503515,-13.989285,-25.610382C-14.045219,-25.717249,-14.12662,-25.800241,-14.233487,-25.85936C-14.340353,-25.918478,-14.456998,-25.948036,-14.583419,-25.948036C-14.786238,-25.948036,-14.950176,-25.883007,-15.075233,-25.752947C-15.20029,-25.622889,-15.262818,-25.43553,-15.262818,-25.190874C-15.262818,-24.922569,-15.188239,-24.723843,-15.039081,-24.594694C-14.914478,-24.487371,-14.76259,-24.433712,-14.583419,-24.433712z"
     id="path48"
     transform="matrix(1,0,0,-1,33.943604,-176.029358)" />
  <path
     style="stroke:#000000;stroke-width:0.05mm;fill:#ffffff;fill-opacity:1"
     d="M-14.583419,-25.746126C-14.461545,-25.746126,-14.360135,-25.699741,-14.279189,-25.606972C-14.198243,-25.514202,-14.15777,-25.372774,-14.15777,-25.182688C-14.15777,-25.003515,-14.198471,-24.867773,-14.279872,-24.775457C-14.361272,-24.683144,-14.462455,-24.636986,-14.583419,-24.636986C-14.706202,-24.636986,-14.808066,-24.682915,-14.889012,-24.774775C-14.969958,-24.866636,-15.01043,-25.005335,-15.01043,-25.190874C-15.01043,-25.376413,-14.969958,-25.515339,-14.889012,-25.607655C-14.808066,-25.699968,-14.706202,-25.746126,-14.583419,-25.746126z"
     id="path49"
     transform="matrix(1,0,0,-1,33.943604,-176.029358)" />
  <path
     style="stroke:#000000;stroke-width:0.05mm;fill:#000000;fill-opacity:1"
     d="M-13.029531,-24.433712C-12.830349,-24.433712,-12.667547,-24.498968,-12.541126,-24.629482C-12.414705,-24.759996,-12.351495,-24.940306,-12.351495,-25.17041C-12.351495,-25.356859,-12.379462,-25.503515,-12.435397,-25.610382C-12.491331,-25.717249,-12.572732,-25.800241,-12.679599,-25.85936C-12.786466,-25.918478,-12.90311,-25.948036,-13.029531,-25.948036C-13.232349,-25.948036,-13.396288,-25.883007,-13.521345,-25.752947C-13.646401,-25.622889,-13.70893,-25.43553,-13.70893,-25.190874C-13.70893,-24.922569,-13.634351,-24.723843,-13.485192,-24.594694C-13.36059,-24.487371,-13.208703,-24.433712,-13.029531,-24.433712z"
     id="path50"
     transform="matrix(1,0,0,-1,33.943604,-176.029358)" />
  <path
     style="stroke:#000000;stroke-width:0.05mm;fill:#ffffff;fill-opacity:1"
     d="M-13.029531,-25.746126C-12.907657,-25.746126,-12.806247,-25.699741,-12.725301,-25.606972C-12.644355,-25.514202,-12.603883,-25.372774,-12.603883,-25.182688C-12.603883,-25.003515,-12.644583,-24.867773,-12.725984,-24.775457C-12.807384,-24.683144,-12.908566,-24.636986,-13.029531,-24.636986C-13.152313,-24.636986,-13.254178,-24.682915,-13.335124,-24.774775C-13.41607,-24.866636,-13.456543,-25.005335,-13.456543,-25.190874C-13.456543,-25.376413,-13.41607,-25.515339,-13.335124,-25.607655C-13.254178,-25.699968,-13.152313,-25.746126,-13.029531,-25.746126z"
     id="path51"
     transform="matrix(1,0,0,-1,33.943604,-176.029358)" />
  <path
     style="stroke:#000000;stroke-width:0.05mm;fill:#000000;fill-opacity:1"
     d="M-11.774414,-24.466454L-11.527484,-24.466454L-11.527484,-24.65745L-11.774414,-24.65745L-11.774414,-25.504652C-11.774414,-25.574684,-11.770094,-25.619705,-11.761454,-25.639713C-11.752813,-25.659723,-11.738716,-25.67564,-11.719162,-25.687464C-11.699608,-25.699287,-11.67164,-25.705198,-11.635261,-25.705198C-11.607975,-25.705198,-11.572049,-25.702015,-11.527484,-25.695648L-11.492013,-25.912565C-11.561135,-25.927118,-11.622982,-25.934393,-11.677552,-25.934393C-11.766684,-25.934393,-11.835806,-25.920296,-11.884919,-25.892101C-11.934032,-25.863907,-11.968594,-25.826845,-11.988603,-25.780914C-12.008612,-25.734985,-12.018617,-25.63835,-12.018617,-25.491011L-12.018617,-24.65745L-12.198698,-24.65745L-12.198698,-24.466454L-12.018617,-24.466454L-12.018617,-24.107655L-11.774414,-23.960314L-11.774414,-24.466454z"
     id="path52"
     transform="matrix(1,0,0,-1,33.943604,-176.029358)" />
  <path
     style="stroke:#000000;stroke-width:0.05mm;fill:#000000;fill-opacity:1"
     d="M1.431588,-25.915295L1.431588,-25.006699L2.370197,-25.006699L2.370197,-24.770683L1.431588,-24.770683L1.431588,-24.15131L2.516172,-24.15131L2.516172,-23.915295L1.166923,-23.915295L1.166923,-25.915295L1.431588,-25.915295z"
     id="path53"
     transform="matrix(1,0,0,-1,33.943604,-176.029358)" />
  <path
     style="stroke:#000000;stroke-width:0.05mm;fill:#000000;fill-opacity:1"
     d="M3.416581,-24.433712C3.615763,-24.433712,3.778564,-24.498968,3.904985,-24.629482C4.031406,-24.759996,4.094617,-24.940306,4.094617,-25.17041C4.094617,-25.356859,4.066649,-25.503515,4.010715,-25.610382C3.954781,-25.717249,3.87338,-25.800241,3.766513,-25.85936C3.659647,-25.918478,3.543003,-25.948036,3.416581,-25.948036C3.213762,-25.948036,3.049824,-25.883007,2.924767,-25.752947C2.79971,-25.622889,2.737182,-25.43553,2.737182,-25.190874C2.737182,-24.922569,2.811761,-24.723843,2.96092,-24.594694C3.085522,-24.487371,3.237409,-24.433712,3.416581,-24.433712z"
     id="path54"
     transform="matrix(1,0,0,-1,33.943604,-176.029358)" />
  <path
     style="stroke:#000000;stroke-width:0.05mm;fill:#ffffff;fill-opacity:1"
     d="M3.416581,-25.746126C3.538455,-25.746126,3.639865,-25.699741,3.720811,-25.606972C3.801757,-25.514202,3.84223,-25.372774,3.84223,-25.182688C3.84223,-25.003515,3.801529,-24.867773,3.720129,-24.775457C3.638728,-24.683144,3.537545,-24.636986,3.416581,-24.636986C3.293798,-24.636986,3.191934,-24.682915,3.110988,-24.774775C3.030042,-24.866636,2.989569,-25.005335,2.989569,-25.190874C2.989569,-25.376413,3.030042,-25.515339,3.110988,-25.607655C3.191934,-25.699968,3.293798,-25.746126,3.416581,-25.746126z"
     id="path55"
     transform="matrix(1,0,0,-1,33.943604,-176.029358)" />
  <path
     style="stroke:#000000;stroke-width:0.05mm;fill:#000000;fill-opacity:1"
     d="M4.970469,-24.433712C5.169651,-24.433712,5.332452,-24.498968,5.458873,-24.629482C5.585295,-24.759996,5.648505,-24.940306,5.648505,-25.17041C5.648505,-25.356859,5.620538,-25.503515,5.564603,-25.610382C5.508669,-25.717249,5.427268,-25.800241,5.320402,-25.85936C5.213535,-25.918478,5.096891,-25.948036,4.970469,-25.948036C4.76765,-25.948036,4.603712,-25.883007,4.478655,-25.752947C4.353598,-25.622889,4.29107,-25.43553,4.29107,-25.190874C4.29107,-24.922569,4.365649,-24.723843,4.514808,-24.594694C4.63941,-24.487371,4.791297,-24.433712,4.970469,-24.433712z"
     id="path56"
     transform="matrix(1,0,0,-1,33.943604,-176.029358)" />
  <path
     style="stroke:#000000;stroke-width:0.05mm;fill:#ffffff;fill-opacity:1"
     d="M4.970469,-25.746126C5.092343,-25.746126,5.193753,-25.699741,5.274699,-25.606972C5.355645,-25.514202,5.396118,-25.372774,5.396118,-25.182688C5.396118,-25.003515,5.355417,-24.867773,5.274017,-24.775457C5.192616,-24.683144,5.091434,-24.636986,4.970469,-24.636986C4.847687,-24.636986,4.745822,-24.682915,4.664876,-24.774775C4.58393,-24.866636,4.543458,-25.005335,4.543458,-25.190874C4.543458,-25.376413,4.58393,-25.515339,4.664876,-25.607655C4.745822,-25.699968,4.847687,-25.746126,4.970469,-25.746126z"
     id="path57"
     transform="matrix(1,0,0,-1,33.943604,-176.029358)" />
  <path
     style="stroke:#000000;stroke-width:0.05mm;fill:#000000;fill-opacity:1"
     d="M6.225585,-24.466454L6.472516,-24.466454L6.472516,-24.65745L6.225585,-24.65745L6.225585,-25.504652C6.225585,-25.574684,6.229906,-25.619705,6.238546,-25.639713C6.247186,-25.659723,6.261284,-25.67564,6.280838,-25.687464C6.300392,-25.699287,6.32836,-25.705198,6.36474,-25.705198C6.392025,-25.705198,6.42795,-25.702015,6.472516,-25.695648L6.507987,-25.912565C6.438864,-25.927118,6.377018,-25.934393,6.322448,-25.934393C6.233316,-25.934393,6.164194,-25.920296,6.115081,-25.892101C6.065968,-25.863907,6.031406,-25.826845,6.011397,-25.780914C5.991388,-25.734985,5.981384,-25.63835,5.981384,-25.491011L5.981384,-24.65745L5.801302,-24.65745L5.801302,-24.466454L5.981384,-24.466454L5.981384,-24.107655L6.225585,-23.960314L6.225585,-24.466454z"
     id="path58"
     transform="matrix(1,0,0,-1,33.943604,-176.029358)" />
  <path
     style="stroke:#000000;stroke-width:0.05mm;fill:#000000;fill-opacity:1"
     d="M1.898164,-47.915295L1.898164,-47.006699L2.836773,-47.006699L2.836773,-46.770683L1.898164,-46.770683L1.898164,-46.15131L2.982748,-46.15131L2.982748,-45.915295L1.633498,-45.915295L1.633498,-47.915295L1.898164,-47.915295z"
     id="path59"
     transform="matrix(1,0,0,-1,33.943604,-176.029358)" />
  <path
     style="stroke:#000000;stroke-width:0.05mm;fill:#000000;fill-opacity:1"
     d="M3.535272,-47.915295L3.535272,-45.915295L3.289706,-45.915295L3.289706,-47.915295L3.535272,-47.915295z"
     id="path60"
     transform="matrix(1,0,0,-1,33.943604,-176.029358)" />
  <path
     style="stroke:#000000;stroke-width:0.05mm;fill:#000000;fill-opacity:1"
     d="M4.910442,-47.915295L5.166923,-47.915295C5.135999,-47.859814,5.115308,-47.801834,5.104849,-47.741352C5.094389,-47.68087,5.08916,-47.536484,5.08916,-47.308201L5.08916,-46.980778C5.08916,-46.871639,5.085067,-46.79615,5.076881,-46.754311C5.06233,-46.687008,5.036863,-46.631302,5.000483,-46.587189C4.964103,-46.543079,4.907259,-46.506474,4.829951,-46.477367C4.752644,-46.448265,4.652143,-46.433712,4.52845,-46.433712C4.403849,-46.433712,4.294253,-46.450764,4.199665,-46.484871C4.105076,-46.518978,4.032771,-46.567635,3.982748,-46.630848C3.932725,-46.694057,3.8968,-46.77705,3.874972,-46.879822L4.115081,-46.912567C4.141457,-46.809792,4.182157,-46.738167,4.237182,-46.697697C4.292207,-46.657223,4.377473,-46.636986,4.49298,-46.636986C4.616673,-46.636986,4.709897,-46.664726,4.772653,-46.720203C4.819037,-46.761131,4.842229,-46.831619,4.842229,-46.931664C4.842229,-46.940762,4.841775,-46.962132,4.840865,-46.995785C4.747186,-47.028526,4.601211,-47.056721,4.402939,-47.080368C4.305622,-47.092194,4.232862,-47.104469,4.184658,-47.117203C4.119174,-47.135395,4.060283,-47.162224,4.007987,-47.197697C3.95569,-47.233166,3.913398,-47.280231,3.881111,-47.338894C3.848824,-47.39756,3.83268,-47.46236,3.83268,-47.533302C3.83268,-47.654266,3.875427,-47.753628,3.96092,-47.83139C4.046413,-47.909153,4.168742,-47.948036,4.327905,-47.948036C4.424312,-47.948036,4.514581,-47.932121,4.59871,-47.900288C4.682839,-47.868454,4.770379,-47.813885,4.861329,-47.736576C4.868605,-47.80479,4.884976,-47.864361,4.910442,-47.915295z"
     id="path61"
     transform="matrix(1,0,0,-1,33.943604,-176.029358)" />
  <path
     style="stroke:#000000;stroke-width:0.05mm;fill:#ffffff;fill-opacity:1"
     d="M4.840865,-47.278187C4.840865,-47.386417,4.827677,-47.468273,4.801302,-47.523754C4.766741,-47.595604,4.712625,-47.652222,4.638955,-47.693604C4.565286,-47.734985,4.481156,-47.755676,4.386568,-47.755676C4.29107,-47.755676,4.218537,-47.733849,4.168969,-47.690193C4.119401,-47.646534,4.094617,-47.591965,4.094617,-47.526482C4.094617,-47.483734,4.105986,-47.444855,4.128724,-47.409836C4.151461,-47.374821,4.183748,-47.348217,4.225585,-47.330029C4.267423,-47.311836,4.338819,-47.295467,4.439774,-47.280914C4.618037,-47.255447,4.751734,-47.224525,4.840865,-47.188145L4.840865,-47.278187z"
     id="path62"
     transform="matrix(1,0,0,-1,33.943604,-176.029358)" />
  <path
     style="stroke:#000000;stroke-width:0.05mm;fill:#000000;fill-opacity:1"
     d="M5.75901,-46.466454L6.00594,-46.466454L6.00594,-46.657448L5.75901,-46.657448L5.75901,-47.504654C5.75901,-47.574684,5.76333,-47.619705,5.77197,-47.639713C5.780611,-47.659721,5.794708,-47.67564,5.814262,-47.687462C5.833817,-47.699287,5.861784,-47.7052,5.898164,-47.7052C5.925449,-47.7052,5.961375,-47.702015,6.00594,-47.695648L6.041411,-47.912567C5.972289,-47.927116,5.910442,-47.934395,5.855872,-47.934395C5.766741,-47.934395,5.697618,-47.920296,5.648505,-47.892101C5.599392,-47.863907,5.564831,-47.826843,5.544822,-47.780914C5.524813,-47.734985,5.514808,-47.638351,5.514808,-47.491009L5.514808,-46.657448L5.334726,-46.657448L5.334726,-46.466454L5.514808,-46.466454L5.514808,-46.107655L5.75901,-45.960316L5.75901,-46.466454z"
     id="path63"
     transform="matrix(1,0,0,-1,33.943604,-176.029358)" />
  <path
     style="stroke:#000000;stroke-width:0.05mm;fill:#000000;fill-opacity:1"
     d="M-16.034986,-46.15131L-16.034986,-45.915295L-14.602518,-45.915295L-14.602518,-46.15131L-15.725301,-47.538757L-15.84672,-47.679279L-14.569776,-47.679279L-14.569776,-47.915295L-16.150949,-47.915295L-16.150949,-47.669727L-15.126392,-46.388691C-15.053632,-46.297741,-14.984509,-46.218613,-14.919025,-46.15131L-16.034986,-46.15131z"
     id="path64"
     transform="matrix(1,0,0,-1,33.943604,-176.029358)" />
  <path
     style="stroke:#000000;stroke-width:0.05mm;fill:#000000;fill-opacity:1"
     d="M-12.501563,-47.636986C-12.631622,-47.740669,-12.765774,-47.818661,-12.904018,-47.870956C-13.042263,-47.923252,-13.184146,-47.949402,-13.329667,-47.949402C-13.526119,-47.949402,-13.70461,-47.907337,-13.865137,-47.823208C-14.025665,-47.739079,-14.146856,-47.617432,-14.228712,-47.458267C-14.310567,-47.299107,-14.351495,-47.121296,-14.351495,-46.924843C-14.351495,-46.730209,-14.310795,-46.548538,-14.229394,-46.379822C-14.147993,-46.211109,-14.030894,-46.085827,-13.878098,-46.003971C-13.725301,-45.922115,-13.549312,-45.881187,-13.350131,-45.881187C-13.20552,-45.881187,-13.074779,-45.904606,-12.957907,-45.951447C-12.841036,-45.998287,-12.749403,-46.063541,-12.683009,-46.147217C-12.616615,-46.230892,-12.566138,-46.340031,-12.531577,-46.47464L-12.770322,-46.540123C-12.800335,-46.438259,-12.837625,-46.358223,-12.882191,-46.300014C-12.926757,-46.241806,-12.990422,-46.195194,-13.073187,-46.160179C-13.155951,-46.12516,-13.247811,-46.107655,-13.348766,-46.107655C-13.46973,-46.107655,-13.574324,-46.126072,-13.662545,-46.162907C-13.750768,-46.199741,-13.821936,-46.248173,-13.876052,-46.308201C-13.930167,-46.368229,-13.972232,-46.434166,-14.002245,-46.506016C-14.053178,-46.629711,-14.078644,-46.763863,-14.078644,-46.908474C-14.078644,-47.086735,-14.047948,-47.235893,-13.986556,-47.355949C-13.925165,-47.476002,-13.835806,-47.565136,-13.71848,-47.623344C-13.601153,-47.681553,-13.476552,-47.710655,-13.344673,-47.710655C-13.230076,-47.710655,-13.118207,-47.688599,-13.009067,-47.644489C-12.899926,-47.60038,-12.817162,-47.55331,-12.760772,-47.503288L-12.760772,-47.130848L-13.348766,-47.130848L-13.348766,-46.896194L-12.501563,-46.894829L-12.501563,-47.636986z"
     id="path65"
     transform="matrix(1,0,0,-1,33.943604,-176.029358)" />
  <path
     style="stroke:#000000;stroke-width:0.05mm;fill:#000000;fill-opacity:1"
     d="M-18.290104,-64.915291L-18.051359,-64.915291L-17.470184,-63.241352L-17.470184,-64.915291L-17.215069,-64.915291L-17.215069,-62.915295L-17.57114,-62.915295L-18.049994,-64.306839C-18.098198,-64.447807,-18.133669,-64.554672,-18.156406,-64.627434C-18.176414,-64.561951,-18.208248,-64.463272,-18.251904,-64.33139L-18.725302,-62.915295L-19.123665,-62.915295L-19.123665,-64.915291L-18.868547,-64.915291L-18.868547,-63.212704L-18.290104,-64.915291z"
     id="path66"
     transform="matrix(1,0,0,-1,33.943604,-176.029358)" />
  <path
     style="stroke:#000000;stroke-width:0.05mm;fill:#000000"
     d="M-15.796243,-64.825256C-15.904473,-64.907112,-16.042719,-64.948036,-16.210976,-64.948036C-16.422892,-64.948036,-16.590921,-64.882782,-16.715069,-64.752266C-16.839216,-64.62175,-16.901291,-64.438713,-16.901291,-64.203156C-16.901291,-63.959404,-16.838535,-63.770229,-16.713022,-63.63562C-16.587511,-63.501015,-16.424709,-63.433712,-16.224619,-63.433712C-16.030895,-63.433712,-15.872641,-63.499649,-15.749858,-63.631527C-15.627075,-63.763409,-15.565683,-63.948944,-15.565683,-64.188148C-15.565683,-64.202698,-15.566138,-64.224525,-15.567047,-64.253632L-16.647539,-64.253632C-16.638443,-64.412796,-16.593424,-64.534668,-16.512478,-64.619247C-16.431532,-64.703835,-16.330576,-64.746124,-16.209612,-64.746124C-16.119572,-64.746124,-16.042719,-64.722481,-15.979053,-64.675186C-15.915387,-64.627892,-15.86491,-64.552399,-15.827621,-64.448715L-15.573869,-64.480095C-15.613887,-64.628342,-15.688011,-64.743401,-15.796243,-64.825256z"
     id="path67"
     transform="matrix(1,0,0,-1,33.943604,-176.029358)" />
  <path
     style="stroke:#000000;stroke-width:0.05mm;fill:#ffffff;fill-opacity:1"
     d="M-15.917662,-63.777504C-15.995878,-63.682915,-16.097288,-63.63562,-16.221891,-63.63562C-16.334669,-63.63562,-16.429485,-63.673367,-16.506338,-63.748856C-16.583191,-63.824345,-16.62571,-63.925297,-16.633896,-64.05172L-15.824892,-64.05172C-15.835806,-63.929848,-15.866729,-63.83844,-15.917662,-63.777504z"
     id="path68"
     transform="matrix(1,0,0,-1,33.943604,-176.029358)" />
  <path
     style="stroke:#000000;stroke-width:0.05mm;fill:#000000;fill-opacity:1"
     d="M-14.864455,-63.498512C-14.788966,-63.455311,-14.703018,-63.433712,-14.606611,-63.433712C-14.49929,-63.433712,-14.411295,-63.455994,-14.342628,-63.500561C-14.273959,-63.545124,-14.225529,-63.607426,-14.197334,-63.687462C-14.082736,-63.518295,-13.933578,-63.433712,-13.749858,-63.433712C-13.606156,-63.433712,-13.495651,-63.473503,-13.418344,-63.553085C-13.341036,-63.632664,-13.302382,-63.755222,-13.302382,-63.92075L-13.302382,-64.915291L-13.546583,-64.915291L-13.546583,-64.002609C-13.546583,-63.904381,-13.554542,-63.833668,-13.570458,-63.790466C-13.586374,-63.747265,-13.615252,-63.712475,-13.657088,-63.6861C-13.698926,-63.659721,-13.748039,-63.646534,-13.804428,-63.646534C-13.906293,-63.646534,-13.990876,-63.680416,-14.05818,-63.748173C-14.125484,-63.815929,-14.159135,-63.924389,-14.159135,-64.073547L-14.159135,-64.915291L-14.404701,-64.915291L-14.404701,-63.973957C-14.404701,-63.864815,-14.42471,-63.782963,-14.464728,-63.72839C-14.504746,-63.67382,-14.57023,-63.646534,-14.661181,-63.646534C-14.730304,-63.646534,-14.794196,-63.664726,-14.852859,-63.701107C-14.911522,-63.737484,-14.954041,-63.790691,-14.980417,-63.860725C-15.006793,-63.930756,-15.01998,-64.031708,-15.01998,-64.163589L-15.01998,-64.915291L-15.265547,-64.915291L-15.265547,-63.466454L-15.045901,-63.466454L-15.045901,-63.669727C-15.000426,-63.598785,-14.939944,-63.541714,-14.864455,-63.498512z"
     id="path69"
     transform="matrix(1,0,0,-1,33.943604,-176.029358)" />
  <path
     style="stroke:#000000;stroke-width:0.05mm;fill:#000000"
     d="M-12.350131,-63.433712C-12.150949,-63.433712,-11.988148,-63.49897,-11.861727,-63.629482C-11.735306,-63.759995,-11.672095,-63.940304,-11.672095,-64.17041C-11.672095,-64.356857,-11.700063,-64.503517,-11.755997,-64.610382C-11.811932,-64.717247,-11.893332,-64.80024,-12.000199,-64.85936C-12.107066,-64.91848,-12.22371,-64.948036,-12.350131,-64.948036C-12.55295,-64.948036,-12.716888,-64.883003,-12.841946,-64.752945C-12.967002,-64.622887,-13.029531,-64.435532,-13.029531,-64.190872C-13.029531,-63.922569,-12.954951,-63.723843,-12.805793,-63.594692C-12.68119,-63.487373,-12.529303,-63.433712,-12.350131,-63.433712z"
     id="path70"
     transform="matrix(1,0,0,-1,33.943604,-176.029358)" />
  <path
     style="stroke:#000000;stroke-width:0.05mm;fill:#ffffff;fill-opacity:1"
     d="M-12.350131,-64.746124C-12.228257,-64.746124,-12.126847,-64.699745,-12.045901,-64.606972C-11.964955,-64.514206,-11.924482,-64.372772,-11.924482,-64.182686C-11.924482,-64.003517,-11.965183,-63.867771,-12.046584,-63.775459C-12.127984,-63.683144,-12.229167,-63.636986,-12.350131,-63.636986C-12.472914,-63.636986,-12.574779,-63.682915,-12.655725,-63.774776C-12.73667,-63.866634,-12.777143,-64.005333,-12.777143,-64.190872C-12.777143,-64.376411,-12.73667,-64.515343,-12.655725,-64.607651C-12.574779,-64.699966,-12.472914,-64.746124,-12.350131,-64.746124z"
     id="path71"
     transform="matrix(1,0,0,-1,33.943604,-176.029358)" />
  <path
     style="stroke:#000000;stroke-width:0.05mm;fill:#000000;fill-opacity:1"
     d="M-11.009748,-63.482826C-10.962,-63.450081,-10.909476,-63.433712,-10.852177,-63.433712C-10.769412,-63.433712,-10.685283,-63.460087,-10.59979,-63.512836L-10.684374,-63.740669C-10.744401,-63.7052,-10.804428,-63.687462,-10.864455,-63.687462C-10.918117,-63.687462,-10.96632,-63.703606,-11.009067,-63.735893C-11.051813,-63.768181,-11.082282,-63.812973,-11.100471,-63.870274C-11.127757,-63.957584,-11.141399,-64.053085,-11.141399,-64.156769L-11.141399,-64.915291L-11.386966,-64.915291L-11.386966,-63.466454L-11.165956,-63.466454L-11.165956,-63.6861C-11.109567,-63.583324,-11.057498,-63.515568,-11.009748,-63.482826z"
     id="path72"
     transform="matrix(1,0,0,-1,33.943604,-176.029358)" />
  <path
     style="stroke:#000000;stroke-width:0.05mm;fill:#000000;fill-opacity:1"
     d="M-9.988603,-64.305473L-10.290103,-63.466454L-10.55477,-63.466454L-10.004973,-64.918022C-10.014978,-64.944397,-10.022254,-64.964409,-10.026802,-64.97805C-10.061363,-65.075363,-10.086374,-65.136307,-10.101836,-65.160858C-10.122754,-65.193604,-10.149585,-65.21907,-10.182327,-65.237259C-10.215069,-65.255447,-10.258725,-65.264542,-10.313295,-65.264542C-10.353313,-65.264542,-10.400153,-65.257271,-10.453815,-65.242714L-10.426529,-65.473274C-10.36832,-65.493286,-10.31557,-65.503288,-10.268275,-65.503288C-10.190058,-65.503288,-10.122754,-65.484413,-10.066365,-65.446671C-10.009976,-65.408928,-9.959953,-65.349579,-9.916297,-65.268639C-9.883555,-65.208611,-9.837625,-65.099014,-9.778507,-64.93985L-9.227347,-63.466454L-9.472914,-63.466454L-9.7826,-64.310928C-9.821709,-64.418251,-9.85536,-64.528297,-9.883555,-64.641075C-9.914478,-64.52375,-9.949494,-64.41188,-9.988603,-64.305473z"
     id="path73"
     transform="matrix(1,0,0,-1,33.943604,-176.029358)" />
  <circle
     transform="scale(1,-1)"
     style="fill:#000000;fill-opacity:1;stroke:#000000;stroke-width:0.05mm"
     r="0.75"
     cx="17.877073"
     cy="119.66047"
     id="circle2-0-82" />
</svg>
